<svg width="50"  viewBox="0 0 514 514" fill="none" xmlns="http://www.w3.org/2000/svg">
<g clip-path="url(#clip0)">
<circle cx="259.202" cy="259.202" r="174.5" transform="rotate(50.9567 259.202 259.202)" fill="#CD372D" stroke="#332D2A" stroke-width="13"/>
<path d="M387.799 198.682L381.436 181.31L372.742 165.829L358.759 153.35L344.966 145.868" stroke="#332D2A" stroke-width="10"/>
<path d="M475.003 136.305C466.916 142.491 458.354 143.879 450.088 141.909C441.299 139.815 432.373 133.781 424.857 124.515C417.341 115.248 413.367 105.392 413.195 96.4954C413.027 87.858 416.408 79.5898 424.737 72.8012C424.91 72.7731 425.327 72.7651 426.142 72.975C427.87 73.4204 430.388 74.6464 433.644 76.9793C440.09 81.5979 447.923 89.4534 455.924 99.3188C463.751 108.969 469.403 118.748 472.462 126.387C474.007 130.244 474.77 133.258 474.956 135.273C474.997 135.72 475.007 136.058 475.003 136.305ZM424.639 72.8326C424.636 72.8289 424.66 72.8159 424.718 72.8046C424.671 72.8307 424.642 72.8364 424.639 72.8326ZM474.967 136.786C474.957 136.844 474.949 136.87 474.947 136.868C474.945 136.866 474.95 136.837 474.967 136.786Z" fill="#CD372D" stroke="#332D2A" stroke-width="13"/>
<line x1="426.186" y1="123.772" x2="373.372" y2="166.606" stroke="#332D2A" stroke-width="10"/>
<path d="M306.33 129.747L289.547 121.964L272.453 117.164L253.742 118.228L238.697 122.69" stroke="#332D2A" stroke-width="10"/>
<path d="M323.886 23.9783C322.542 34.0701 317.469 41.1062 310.231 45.5586C302.535 50.2922 291.957 52.3377 280.091 51.0995C268.223 49.8612 258.444 45.7018 252.031 39.5334C245.805 33.5443 242.349 25.307 243.439 14.6171C243.541 14.4754 243.83 14.1746 244.554 13.7471C246.091 12.8402 248.739 11.9264 252.691 11.2737C260.515 9.98128 271.608 9.9973 284.242 11.3155C296.6 12.6049 307.511 15.5235 315.076 18.7614C318.895 20.3964 321.566 21.9879 323.123 23.2812C323.468 23.5681 323.714 23.8004 323.886 23.9783ZM243.391 14.7091C243.386 14.7085 243.394 14.6825 243.428 14.6329C243.413 14.6849 243.396 14.7097 243.391 14.7091ZM324.2 24.3436C324.234 24.3917 324.246 24.4156 324.244 24.4156C324.241 24.4156 324.224 24.3916 324.2 24.3436Z" fill="#CD372D" stroke="#332D2A" stroke-width="13"/>
<line x1="280.505" y1="49.6346" x2="273.448" y2="117.267" stroke="#332D2A" stroke-width="10"/>
<path d="M129.747 212.073L121.964 228.856L117.164 245.951L118.228 264.662L122.69 279.706" stroke="#332D2A" stroke-width="10"/>
<path d="M23.9783 194.518C34.0701 195.862 41.1062 200.934 45.5586 208.173C50.2922 215.869 52.3377 226.447 51.0995 238.313C49.8612 250.181 45.7018 259.96 39.5334 266.373C33.5443 272.599 25.307 276.054 14.6171 274.965C14.4754 274.863 14.1746 274.574 13.7471 273.849C12.8402 272.313 11.9264 269.665 11.2737 265.713C9.98128 257.889 9.9973 246.795 11.3155 234.162C12.6049 221.804 15.5235 210.893 18.7614 203.328C20.3964 199.508 21.9879 196.837 23.2812 195.281C23.5681 194.936 23.8004 194.69 23.9783 194.518ZM14.7091 275.013C14.7085 275.017 14.6825 275.01 14.6329 274.976C14.6849 274.991 14.7097 275.008 14.7091 275.013ZM24.3436 194.203C24.3917 194.169 24.4156 194.157 24.4156 194.16C24.4156 194.162 24.3916 194.179 24.3436 194.203Z" fill="#CD372D" stroke="#332D2A" stroke-width="13"/>
<line x1="49.6345" y1="237.899" x2="117.267" y2="244.956" stroke="#332D2A" stroke-width="10"/>
<path d="M129.051 320.982L135.415 338.353L144.108 353.835L158.091 366.313L171.885 373.796" stroke="#332D2A" stroke-width="10"/>
<path d="M41.8475 383.358C49.934 377.173 58.496 375.784 66.7628 377.754C75.5516 379.849 84.4778 385.882 91.993 395.148C99.5092 404.416 103.483 414.272 103.656 423.168C103.823 431.806 100.442 440.074 92.1129 446.862C91.9406 446.89 91.5233 446.898 90.7088 446.689C88.9808 446.243 86.4625 445.017 83.2065 442.684C76.7602 438.066 68.9273 430.21 60.9261 420.345C53.0996 410.695 47.4477 400.915 44.3884 393.277C42.8435 389.42 42.0803 386.406 41.8942 384.391C41.8529 383.944 41.8432 383.605 41.8475 383.358ZM92.2116 446.831C92.2144 446.835 92.1907 446.848 92.1319 446.859C92.1793 446.833 92.2087 446.827 92.2116 446.831ZM41.8835 382.878C41.8934 382.819 41.9018 382.794 41.9035 382.796C41.9053 382.798 41.9003 382.827 41.8835 382.878Z" fill="#CD372D" stroke="#332D2A" stroke-width="13"/>
<line x1="90.6644" y1="395.892" x2="143.478" y2="353.058" stroke="#332D2A" stroke-width="10"/>
<path d="M322.872 391.683L340.243 385.319L355.724 376.626L368.203 362.643L375.685 348.849" stroke="#332D2A" stroke-width="10"/>
<path d="M385.248 478.886C379.062 470.8 377.674 462.238 379.644 453.971C381.738 445.182 387.772 436.256 397.038 428.741C406.306 421.225 416.162 417.251 425.058 417.078C433.695 416.911 441.963 420.292 448.752 428.621C448.78 428.793 448.788 429.21 448.578 430.025C448.133 431.753 446.907 434.271 444.574 437.527C439.955 443.974 432.1 451.806 422.234 459.808C412.584 467.634 402.805 473.286 395.167 476.345C391.309 477.89 388.296 478.653 386.28 478.84C385.833 478.881 385.495 478.891 385.248 478.886ZM448.721 428.522C448.724 428.519 448.737 428.543 448.749 428.602C448.723 428.554 448.717 428.525 448.721 428.522ZM384.767 478.85C384.709 478.84 384.684 478.832 384.685 478.83C384.687 478.828 384.716 478.833 384.767 478.85Z" fill="#CD372D" stroke="#332D2A" stroke-width="13"/>
<line x1="397.781" y1="430.069" x2="354.948" y2="377.256" stroke="#332D2A" stroke-width="10"/>
<path d="M194.902 125.944L177.531 132.308L162.049 141.001L149.571 154.984L142.088 168.778" stroke="#332D2A" stroke-width="10"/>
<path d="M132.526 38.7408C138.711 46.8273 140.1 55.3893 138.13 63.6561C136.035 72.4449 130.002 81.3711 120.736 88.8862C111.468 96.4024 101.612 100.376 92.7159 100.549C84.0785 100.716 75.8103 97.3354 69.0217 89.0062C68.9936 88.8339 68.9855 88.4166 69.1955 87.6021C69.6409 85.8741 70.8669 83.3558 73.1997 80.0998C77.8184 73.6535 85.6739 65.8206 95.5393 57.8194C105.189 49.9928 114.969 44.341 122.607 41.2817C126.464 39.7368 129.478 38.9735 131.493 38.7874C131.94 38.7462 132.279 38.7365 132.526 38.7408ZM69.0531 89.1049C69.0494 89.1077 69.0363 89.084 69.0251 89.0252C69.0512 89.0726 69.0568 89.102 69.0531 89.1049ZM133.006 38.7768C133.065 38.7866 133.09 38.7951 133.088 38.7968C133.086 38.7986 133.057 38.7936 133.006 38.7768Z" fill="#CD372D" stroke="#332D2A" stroke-width="13"/>
<line x1="119.992" y1="87.5576" x2="162.826" y2="140.371" stroke="#332D2A" stroke-width="10"/>
<path d="M212.073 388.656L228.856 396.44L245.95 401.24L264.662 400.176L279.706 395.713" stroke="#332D2A" stroke-width="10"/>
<path d="M194.518 494.425C195.862 484.333 200.934 477.297 208.173 472.845C215.869 468.111 226.447 466.066 238.313 467.304C250.181 468.542 259.96 472.702 266.373 478.87C272.599 484.859 276.054 493.097 274.965 503.786C274.863 503.928 274.574 504.229 273.849 504.656C272.312 505.563 269.665 506.477 265.713 507.13C257.889 508.422 246.795 508.406 234.162 507.088C221.804 505.799 210.893 502.88 203.328 499.642C199.508 498.007 196.837 496.416 195.281 495.122C194.936 494.835 194.69 494.603 194.518 494.425ZM275.013 503.694C275.017 503.695 275.01 503.721 274.976 503.771C274.991 503.719 275.008 503.694 275.013 503.694ZM194.203 494.06C194.169 494.012 194.157 493.988 194.16 493.988C194.162 493.988 194.179 494.012 194.203 494.06Z" fill="#CD372D" stroke="#332D2A" stroke-width="13"/>
<line x1="237.899" y1="468.769" x2="244.956" y2="401.136" stroke="#332D2A" stroke-width="10"/>
<path d="M388.656 306.33L396.44 289.547L401.24 272.453L400.176 253.742L395.713 238.697" stroke="#332D2A" stroke-width="10"/>
<path d="M494.425 323.886C484.333 322.542 477.297 317.469 472.845 310.231C468.111 302.535 466.066 291.957 467.304 280.091C468.542 268.223 472.702 258.444 478.87 252.031C484.859 245.805 493.097 242.349 503.786 243.439C503.928 243.541 504.229 243.83 504.656 244.554C505.563 246.091 506.477 248.739 507.13 252.691C508.422 260.515 508.406 271.608 507.088 284.242C505.799 296.6 502.88 307.511 499.642 315.076C498.007 318.895 496.416 321.566 495.122 323.123C494.835 323.468 494.603 323.714 494.425 323.886ZM503.694 243.391C503.695 243.386 503.721 243.394 503.771 243.428C503.719 243.413 503.694 243.396 503.694 243.391ZM494.06 324.2C494.012 324.234 493.988 324.246 493.988 324.244C493.988 324.241 494.012 324.224 494.06 324.2Z" fill="#CD372D" stroke="#332D2A" stroke-width="13"/>
<line x1="468.769" y1="280.505" x2="401.136" y2="273.448" stroke="#332D2A" stroke-width="10"/>
<path d="M154.325 247.981C154.325 247.981 186.562 260.527 202.206 219.682C217.849 178.836 185.612 166.291 185.612 166.291" stroke="#332D2A" stroke-width="10"/>
<path d="M270.422 154.325C270.422 154.325 257.876 186.562 298.722 202.206C339.567 217.849 352.113 185.612 352.113 185.612" stroke="#332D2A" stroke-width="10"/>
<path d="M373.431 279.807C373.431 279.807 343.566 262.35 321.697 300.229C299.827 338.107 329.692 355.564 329.692 355.564" stroke="#332D2A" stroke-width="10"/>
<path d="M249.399 369.252C249.399 369.252 266.856 339.387 228.977 317.518C191.098 295.648 173.641 325.513 173.641 325.513" stroke="#332D2A" stroke-width="10"/>
</g>
<defs>
<clipPath id="clip0">
<rect width="514" height="514" fill="white"/>
</clipPath>
</defs>
</svg>
